# AST/ASF file generated using VICON BodyLanguage
# -----------------------------------------------
:version 1.10
:name VICON
:units
  mass 1.0
  length 0.45
  angle deg
:documentation
   .ast/.asf automatically generated from VICON data using
   VICON BodyBuilder and BodyLanguage model FoxedUp or BRILLIANT.MOD
:root
   order TX TY TZ RX RY RZ
   axis XYZ
   position 0 0 0  
   orientation 0 0 0 
:bonedata
  begin
     id 1 
     name lhipjoint
     direction 0.635376 -0.686425 0.353719 
     length 2.47244 
     axis 0 0 0  XYZ
  end
  begin
     id 2 
     name lfemur
     direction 0.34202 -0.939693 0  
     length 7.25268  
     axis 0 0 20  XYZ
    dof rx ry rz
    limits (-160.0 20.0)
           (-70.0 70.0)
           (-60.0 70.0)
  end
  begin
     id 3 
     name ltibia
     direction 0.34202 -0.939693 0   
     length 7.6767   
     axis 0 0 20   XYZ
    dof rx
    limits (-10.0 170.0)
  end
  begin
     id 4 
     name lfoot
     direction 0.0803374 -0.220725 0.972022   
     length 2.22945   
     axis -90 7.62852e-016 20   XYZ
    dof rx rz
    limits (-45.0 90.0)
           (-70.0 20.0)
  end
  begin
     id 5 
     name ltoes
     direction 1.53579e-011 -4.21994e-011 1   
     length 1.11848   
     axis -90 7.62852e-016 20   XYZ
    dof rx
    limits (-90.0 20.0)
  end
  begin
     id 6 
     name rhipjoint
     direction -0.664428 -0.664335 0.342336   
     length 2.55466  
     axis 0 0 0  XYZ 
  end
  begin
     id 7 
     name rfemur
     direction -0.34202 -0.939693 0   
     length 6.83172   
     axis 0 0 -20   XYZ
    dof rx ry rz
    limits (-160.0 20.0)
           (-70.0 70.0)
           (-70.0 60.0)
  end
  begin
     id 8 
     name rtibia
     direction -0.34202 -0.939693 0   
     length 7.62692   
     axis 0 0 -20   XYZ
    dof rx
    limits (-10.0 170.0)
 end
 begin
     id 9 
     name rfoot
     direction -0.0949276 -0.260811 0.960711   
     length 2.19684  
     axis -90 -7.62852e-016 -20   XYZ
    dof rx rz
    limits (-45.0 90.0)
           (-20.0 70.0)
  end
  begin
     id 10 
     name rtoes
     direction -1.53543e-011 -4.2183e-011 1   
     length 1.09848   
     axis -90 -7.62852e-016 -20   XYZ
    dof rx
    limits (-90.0 20.0)
  end
  begin
     id 11 
     name lowerback
     direction 0.0118782 0.999815 -0.0151555   
     length 2.15772   
     axis 0 0 0   XYZ
    dof rx ry rz
    limits (-20.0 45.0)
           (-30.0 30.0)
           (-30.0 30.0)
  end
  begin
     id 12 
     name upperback
     direction 0.00130825 0.999065 0.0432113   
     length 2.14863   
     axis 0 0 0   XYZ
    dof rx ry rz
    limits (-20.0 45.0)
           (-30.0 30.0)
           (-30.0 30.0)
  end
  begin
     id 13 
     name thorax
     direction -0.00347005 0.998773 0.0494011   
     length 2.14936   
     axis 0 0 0   XYZ
    dof rx ry rz
    limits (-20.0 45.0)
           (-30.0 30.0)
           (-30.0 30.0)
  end
  begin
     id 14 
     name lowerneck
     direction -0.0262159 0.99424 0.103921   
     length 1.69373   
     axis 0 0 0   XYZ
    dof rx ry rz
    limits (-20.0 45.0)
           (-30.0 30.0)
           (-30.0 30.0)
  end
  begin
     id 15 
     name upperneck
     direction 0.0353511 0.977394 -0.20845   
     length 1.70857   
     axis 0 0 0   XYZ
    dof rx ry rz
    limits (-20.0 45.0)
           (-30.0 30.0)
           (-30.0 30.0)
  end
  begin
     id 16
     name head
     direction 0.0139214 0.996594 -0.0812836  
     length 1.72777  
     axis 0 0 0   XYZ
    dof rx ry rz
    limits (-20.0 45.0)
           (-30.0 30.0)
           (-30.0 30.0)
  end
  begin
     id 17 
     name lclavicle
     direction 0.841247 0.537205 -0.0609508  
     length 3.55371  
     axis 0 0 0   XYZ
    dof ry rz
    limits (-20.0 10.0)
           (0.0 20.0)
  end
  begin
     id 18 
     name lhumerus
     direction 1 -4.48964e-011 1.60116e-018   
     length 4.91377   
     axis -180 -30 -90   XYZ
    dof rx ry rz
    limits (-60.0 90.0)
           (-90.0 90.0)
           (-90.0 90.0)
  end
  begin
     id 19
     name lradius
     direction 1 -4.48989e-011 -8.93847e-027   
     length 3.00291   
     axis -180 -30 -90   XYZ
    dof rx
    limits (-10.0 170.0)
  end
  begin
     id 20
     name lwrist
     direction 1 -4.48932e-011 -7.31504e-027   
     length 1.50145   
     axis 5.74121e-015 90 90   XYZ
    dof ry
    limits (-180.0 0.0)
 end
  begin
     id 21 
     name lhand
     direction 1 -4.48971e-011 -1.46301e-026   
     length 0.450922   
     axis 9.33524e-015 90 90   XYZ
    dof rx rz
    limits (-90.0 90.0)
           (-45.0 45.0)
  end
  begin
     id 22 
     name lfingers
     direction 1 -4.49039e-011 -2.92602e-026   
     length 0.363545   
     axis 1.86705e-014 90 90   XYZ
    dof rx
    limits (0.0 90.0)
  end
  begin
     id 23
     name lthumb
     direction 0.707107 -6.34941e-011 0.707107   
     length 0.52198   
     axis -90 45 2.85299e-015   XYZ
    dof rx rz
    limits (-45.0 45.0)
           (-45.0 45.0)
  end
  begin
     id 24 
     name rclavicle
     direction -0.825079 0.56158 -0.0622297   
     length 3.39909  
     axis 0 0 0   XYZ 
    dof ry rz
    limits (-10.0 20.0)
           (-20.0 0.0)
  end
  begin
     id 25 
     name rhumerus
     direction -1 -4.48965e-011 1.61691e-027  
     length 4.86725   
     axis -180 30 90   XYZ
    dof rx ry rz
    limits (-90.0 60.0)
           (-90.0 90.0)
           (-90.0 90.0)
  end
  begin
     id 26 
     name rradius
     direction -1 -4.48964e-011 -2.25776e-027   
     length 3.17144   
     axis -180 30 90   XYZ
    dof rx
    limits (-10.0 170.0)
  end
  begin
     id 27 
     name rwrist
     direction -1 -4.48961e-011 -7.31504e-027   
     length 1.58572   
     axis 5.74121e-015 -90 -90   XYZ
    dof ry
    limits (-180.0 0.0)
  end
  begin
     id 28
     name rhand
     direction -1 -4.49013e-011 -1.46301e-026   
     length 0.419368   
     axis 9.33524e-015 -90 -90   XYZ
    dof rx rz
    limits (-90.0 90.0)
           (-45.0 45.0)
  end
  begin
     id 29
     name rfingers
     direction -1 -4.489e-011 -2.92602e-026   
     length 0.338105   
     axis 1.86705e-014 -90 -90   XYZ
    dof rx
    limits (0.0 90.0)
  end
  begin
     id 30
     name rthumb
     direction -0.707107 -6.35022e-011 0.707107   
     length 0.485453   
     axis -90 -45 -2.85299e-015   XYZ
    dof rx rz
    limits (-45.0 45.0)
           (-45.0 45.0)
  end
:hierarchy
  begin
    root lhipjoint rhipjoint lowerback
    lhipjoint lfemur
    lfemur ltibia
    ltibia lfoot
    lfoot ltoes
    rhipjoint rfemur
    rfemur rtibia
    rtibia rfoot
    rfoot rtoes
    lowerback upperback
    upperback thorax
    thorax lowerneck lclavicle rclavicle
    lowerneck upperneck
    upperneck head
    lclavicle lhumerus
    lhumerus lradius
    lradius lwrist
    lwrist lhand lthumb
    lhand lfingers
    rclavicle rhumerus
    rhumerus rradius
    rradius rwrist
    rwrist rhand rthumb
    rhand rfingers
  end

#!OML:ASF H:\Swim 2\Project 1\Capture day 1\Session 1\male.ASF
:FULLY-SPECIFIED
:DEGREES
1
root 5.40612 14.2722 19.3561 7.69077 -3.98181 -0.910284
lowerback 1.27132 -0.981344 1.56502
upperback -4.30826 -1.23925 0.354373
thorax -5.18897 -0.674135 -0.437789
lowerneck -19.244 -1.10755 -4.25383
upperneck 22.3022 -1.4169 4.49477
head 10.3852 -0.472049 2.10906
rclavicle -1.78149e-014 -5.2181e-016
rhumerus 27.7458 22.172 -39.2753
rradius 85.0453
rwrist -14.3341
rhand 30.6722 -10.7213
rfingers 7.12502
rthumb 54.3103 -29.3473
lclavicle -1.78149e-014 -5.2181e-016
lhumerus 13.901 -14.331 52.8368
lradius 91.069
lwrist 4.52647
lhand 31.9818 18.0468
lfingers 7.12502
lthumb 55.4793 35.833
rfemur -41.4626 -13.4937 19.2359
rtibia 76.663
rfoot -33.9864 10.5673
rtoes -12.041
lfemur -39.3966 14.423 -16.3999
ltibia 82.0001
lfoot -32.6398 10.5221
ltoes -11.8348
2
root 5.40988 14.2735 19.3583 7.66932 -3.93678 -0.885821
lowerback 1.24693 -0.9904 1.57157
upperback -4.29675 -1.25147 0.358973
thorax -5.16325 -0.680177 -0.436601
lowerneck -19.2049 -1.08259 -4.21399
upperneck 22.2974 -1.36369 4.37311
head 10.3722 -0.459408 2.06619
rclavicle -2.79339e-014 -1.09829e-014
rhumerus 27.7725 22.2227 -39.2348
rradius 84.979
rwrist -14.3189
rhand 30.5905 -10.709
rfingers 7.12502
rthumb 54.2371 -29.3854
lclavicle -2.79339e-014 -1.09829e-014
lhumerus 13.8846 -14.4099 52.9055
lradius 90.9934
lwrist 4.5352
lhand 31.9325 18.014
lfingers 7.12502
lthumb 55.4354 35.833
rfemur -41.441 -13.5896 19.1577
rtibia 76.6871
rfoot -33.9843 10.6809
rtoes -12.3611
lfemur -39.368 14.4483 -16.4465
ltibia 81.9814
lfoot -32.6186 10.5669
ltoes -12.1503
3
root 5.41226 14.2742 19.3587 7.64693 -3.9146 -0.882307
lowerback 1.26868 -0.996104 1.56719
upperback -4.29273 -1.25796 0.37918
thorax -5.17103 -0.682756 -0.412515
lowerneck -19.2462 -1.0563 -4.14867
upperneck 22.327 -1.30773 4.22602
head 10.3866 -0.445641 2.01113
rclavicle 7.60196e-016 -9.83984e-015
rhumerus 27.8217 22.2845 -39.1895
rradius 84.9138
rwrist -14.2447
rhand 30.4913 -10.7329
rfingers 7.12502
rthumb 54.1481 -29.4703
lclavicle 7.60196e-016 -9.83984e-015
lhumerus 13.8667 -14.4797 52.9679
lradius 90.9297
lwrist 4.52336
lhand 32.2923 17.9963
lfingers 7.12502
lthumb 55.7552 35.5742
rfemur -41.416 -13.617 19.1132
rtibia 76.6767
rfoot -33.9349 10.8006
rtoes -12.5233
lfemur -39.3579 14.4958 -16.4541
ltibia 81.9825
lfoot -32.5943 10.5416
ltoes -12.2414
4
root 5.41481 14.276 19.3602 7.63926 -3.88587 -0.871426
lowerback 1.25855 -0.995671 1.5629
upperback -4.28686 -1.25734 0.389211
thorax -5.15872 -0.681939 -0.400056
lowerneck -19.2301 -1.03475 -4.15674
upperneck 22.3134 -1.26555 4.18982
head 10.3763 -0.431482 2.00535
rclavicle 7.62293e-015 8.15017e-015
rhumerus 27.8521 22.3289 -39.122
rradius 84.8445
rwrist -14.2213
rhand 30.4786 -10.6472
rfingers 7.12502
rthumb 54.1367 -29.3923
lclavicle 7.62293e-015 8.15017e-015
lhumerus 13.8675 -14.5646 53.0126
lradius 90.8634
lwrist 4.42014
lhand 32.2674 17.9492
lfingers 7.12502
lthumb 55.7331 35.5439
rfemur -41.3655 -13.6347 19.0588
rtibia 76.6489
rfoot -34.0251 10.8424
rtoes -12.6893
lfemur -39.355 14.52 -16.4669
ltibia 81.9853
lfoot -32.5511 10.5013
ltoes -12.3853
5
root 5.41736 14.2779 19.3616 7.62931 -3.85527 -0.862183
lowerback 1.24623 -0.997896 1.55724
upperback -4.2776 -1.26022 0.403348
thorax -5.14155 -0.682675 -0.38247
lowerneck -19.232 -1.01762 -4.14699
upperneck 22.3105 -1.22605 4.12029
head 10.3732 -0.420935 1.98445
rclavicle -7.49247e-015 9.0944e-015
rhumerus 27.8994 22.3698 -39.0632
rradius 84.7815
rwrist -14.1974
rhand 30.4464 -10.6372
rfingers 7.12502
rthumb 54.1078 -29.4021
lclavicle -7.49247e-015 9.0944e-015
lhumerus 13.8749 -14.6397 53.062
lradius 90.7954
lwrist 4.34445
lhand 32.3384 17.9114
lfingers 7.12502
lthumb 55.7961 35.4582
rfemur -41.3219 -13.6604 19.0108
rtibia 76.6165
rfoot -34.0506 10.8995
rtoes -12.864
lfemur -39.3534 14.5436 -16.4793
ltibia 81.9892
lfoot -32.5079 10.4659
ltoes -12.5098
6
root 5.41972 14.2801 19.363 7.62461 -3.82245 -0.858092
lowerback 1.23461 -0.999688 1.55426
upperback -4.27144 -1.26235 0.418126
thorax -5.12808 -0.683169 -0.365714
lowerneck -19.236 -1.00588 -4.14827
upperneck 22.3084 -1.19548 4.06929
head 10.3715 -0.413165 1.97079
rclavicle -2.80166e-014 3.926e-015
rhumerus 27.949 22.4048 -39.0061
rradius 84.7234
rwrist -14.1796
rhand 30.44 -10.6381
rfingers 7.12502
rthumb 54.1021 -29.4068
lclavicle -2.80166e-014 3.926e-015
lhumerus 13.8898 -14.715 53.1047
lradius 90.7313
lwrist 4.25047
lhand 32.3976 17.8814
lfingers 7.12502
lthumb 55.8486 35.3879
rfemur -41.2773 -13.6786 18.9759
rtibia 76.5751
rfoot -34.0777 10.9309
rtoes -13.0061
lfemur -39.3621 14.5583 -16.4827
ltibia 81.9966
lfoot -32.4536 10.4152
ltoes -12.603
7
root 5.42203 14.2825 19.3643 7.6249 -3.78546 -0.85857
lowerback 1.22135 -1.00166 1.55633
upperback -4.26727 -1.26457 0.43213
thorax -5.11591 -0.683953 -0.352585
lowerneck -19.2395 -0.999402 -4.15641
upperneck 22.3056 -1.17427 4.0339
head 10.37 -0.408381 1.9625
rclavicle 1.5235e-015 -5.91384e-015
rhumerus 27.9982 22.4309 -38.9517
rradius 84.6701
rwrist -14.1664
rhand 30.4554 -10.6399
rfingers 7.12502
rthumb 54.1159 -29.3993
lclavicle 1.5235e-015 -5.91384e-015
lhumerus 13.9147 -14.7877 53.1395
lradius 90.6707
lwrist 4.14503
lhand 32.4366 17.8619
lfingers 7.12502
lthumb 55.8832 35.3418
rfemur -41.2373 -13.6956 18.9544
rtibia 76.5348
rfoot -34.101 10.9376
rtoes -13.116
lfemur -39.3792 14.5609 -16.4792
ltibia 82.0054
lfoot -32.3906 10.3571
ltoes -12.6887
